<svg width="140" height="171" viewBox="0 0 140 171" fill="none" xmlns="http://www.w3.org/2000/svg">
<path opacity="0.3" d="M-7.46644 69.5484C-3.7886 65.0232 0.329493 59.9505 4.49944 53.3275C7.37438 56.5724 10.6638 59.784 14.4341 63.0475C-1.46499 89.7026 -5.81622 111.921 0.954863 132.412C-9.05006 120.376 -15.9433 105.657 -18.4926 89.4991C-17.6712 82.1249 -13.3014 76.7302 -7.46644 69.5484ZM143.632 49.3351C144.224 49.583 144.772 49.8901 145.316 50.1565C146.389 50.73 147.362 51.3146 148.15 51.8844C148.949 52.4357 149.574 52.9501 150 53.3275C150.426 53.7049 150.655 53.9342 150.655 53.9342C150.655 53.9342 150.344 53.8306 149.822 53.6197C149.293 53.4088 148.546 53.1091 147.673 52.7539C146.785 52.395 145.763 51.9806 144.679 51.5366C144.132 51.3257 143.562 51.1074 142.988 50.8854C142.774 50.7966 142.552 50.7189 142.337 50.6375C142.337 50.6375 142.337 50.6412 142.337 50.6449C132.484 47.4666 120.459 45.7609 109.181 45.4501C81.6972 44.7026 48.0268 51.4885 34.074 72.6009C28.7459 68.9564 24.0801 65.4968 19.9805 62.1298C21.8638 59.1143 23.8877 56.0358 26.0744 52.8797C48.678 20.2601 88.8198 -8.67416 119.068 1.46027C124.477 5.09001 129.454 9.30803 133.934 14.0071C133.931 14.0034 133.927 14.0034 133.923 13.9997C133.923 13.9997 141.113 28.0154 142.252 48.769C142.715 48.954 143.185 49.1353 143.632 49.3351ZM32.1869 121.967C37.5002 133.038 46.1213 143.22 56.2261 151.116C34.0628 151.323 15.348 142.643 8.14032 138.78C-2.37151 117.309 0.5478 94.6829 17.7308 65.8114C21.8786 69.1896 26.5665 72.6527 31.8983 76.2899C22.5483 93.9465 26.8218 110.793 32.1869 121.967ZM50.7833 88.3558C75.5329 103.371 99.1799 114.23 117.943 119.669C117.01 120.801 116.06 121.93 115.061 123.062C99.117 141.141 81.4123 148.604 64.9434 150.561C65.3097 150.816 65.6723 151.083 66.0349 151.327C66.9044 151.919 67.7628 152.5 68.5916 153.066C70.2603 154.183 71.8181 155.227 73.1612 156.126C74.5043 157.025 75.6069 157.802 76.3765 158.349C77.1387 158.904 77.579 159.23 77.579 159.23C77.579 159.23 77.0758 159.012 76.2137 158.638C75.3516 158.25 74.1232 157.683 72.6802 156.951C71.2298 156.222 69.5611 155.334 67.8147 154.305C66.9414 153.784 66.0386 153.251 65.1432 152.67C64.2515 152.082 63.3524 151.475 62.4644 150.849C61.5875 150.209 60.7217 149.551 59.8818 148.889C59.0382 148.223 58.25 147.52 57.4915 146.842C56.7293 146.158 56.0263 145.466 55.3788 144.793C55.3455 144.759 55.3159 144.722 55.2826 144.689C47.2054 137.659 40.3677 129.145 36.0349 120.121C31.1435 109.931 27.2288 94.6422 35.4725 78.6839C40.1087 81.7586 45.1889 84.9628 50.7833 88.3558ZM123.782 115.366C124.551 115.636 125.313 115.899 126.05 116.154C127.526 116.668 128.891 117.168 130.064 117.616C131.233 118.056 132.206 118.452 132.884 118.733C133.553 119.022 133.946 119.196 133.946 119.196C133.946 119.196 133.52 119.14 132.798 119.048C132.07 118.94 131.034 118.778 129.802 118.519C128.569 118.274 127.141 117.938 125.628 117.534C124.873 117.32 124.085 117.124 123.297 116.879C122.512 116.632 121.713 116.384 120.914 116.132C120.844 116.11 120.77 116.084 120.696 116.054C102.147 110.867 77.9824 99.8629 52.9997 84.7038C47.3608 81.2849 42.2584 78.0659 37.6185 74.9874C50.5724 55.3069 82.7591 48.9984 109.066 49.7162C121.758 50.0677 133.49 52.0954 142.393 55.1886C142.234 72.4937 137.512 93.5099 121.817 114.711C122.475 114.929 123.134 115.151 123.782 115.366ZM152.209 42.3124C152.209 42.3124 152.512 43.0376 153.075 44.3955C153.611 45.7682 154.411 47.7774 155.228 50.4081C156.849 55.651 158.784 63.373 159.154 72.8636C159.265 75.2354 159.195 77.7145 159.154 80.2416C159.073 81.5218 158.987 82.8242 158.902 84.1488C158.806 85.4697 158.614 86.7943 158.469 88.1485C157.763 93.5395 156.549 99.1858 154.614 104.81C150.807 116.065 144.376 127.321 135.736 136.652C127.086 145.965 116.426 153.321 105.5 158.017C94.5733 162.786 83.4584 164.673 74.0159 165.084C71.6479 165.106 69.3686 165.195 67.2226 165.08C65.0618 164.984 63.0268 164.825 61.1138 164.606C57.2954 164.177 54.0023 163.559 51.3161 162.952C48.6299 162.353 46.5579 161.724 45.1519 161.287C43.7533 160.832 43.0058 160.592 43.0058 160.592C43.0058 160.592 43.7643 160.795 45.1851 161.176C46.6096 161.546 48.7076 162.035 51.4012 162.545C54.0948 163.049 57.3879 163.533 61.1878 163.814C64.9841 164.114 69.2835 164.118 73.9567 163.885C78.6224 163.567 83.6545 162.893 88.8568 161.665C94.0627 160.444 99.4278 158.657 104.76 156.318C115.423 151.641 125.787 144.36 134.171 135.206C142.674 126.159 149.053 115.203 152.868 104.21C154.766 98.7048 156.124 93.2177 156.934 87.934C157.104 86.6094 157.326 85.3032 157.452 84.0119C157.567 82.7243 157.678 81.4552 157.789 80.2046C157.889 77.6552 158.014 75.2317 157.955 72.897C157.789 63.5359 156.283 55.7991 154.829 50.5228C154.103 47.881 153.441 45.8275 152.967 44.4362C152.472 43.0524 152.209 42.3124 152.209 42.3124ZM-19.5952 75.5018C-19.5952 75.5018 -19.6211 74.9542 -19.6729 73.9293C-19.6877 72.897 -19.8727 71.4021 -19.795 69.4744C-19.7765 68.505 -19.7581 67.4357 -19.7396 66.2702C-19.6545 65.1121 -19.562 63.854 -19.462 62.5146C-19.3621 61.1715 -19.129 59.7544 -18.9551 58.2485C-18.7775 56.7425 -18.4038 55.1959 -18.1152 53.5531C-17.7859 51.9251 -17.3382 50.249 -16.9201 48.4989C-16.3873 46.7821 -15.9062 44.9801 -15.2328 43.1893C-14.0044 39.5632 -12.3765 35.8521 -10.4783 32.1188C-8.49141 28.4372 -6.28613 24.6928 -3.6739 21.1445C-1.04317 17.6146 1.86504 14.1994 4.99158 10.9915C8.19582 7.86125 11.6109 4.95674 15.1408 2.32602C18.6891 -0.29361 22.4336 -2.4951 26.1152 -4.48203C29.8485 -6.38016 33.5559 -8.0119 37.1857 -9.23662C38.9765 -9.91003 40.7821 -10.3874 42.4952 -10.9239C44.2453 -11.3457 45.9215 -11.7896 47.5532 -12.1226C49.1923 -12.4075 50.7426 -12.7813 52.2485 -12.9589C53.7545 -13.1365 55.1679 -13.3659 56.511 -13.4658C57.8541 -13.5657 59.1084 -13.6582 60.2702 -13.7433C61.432 -13.7618 62.5014 -13.7802 63.4634 -13.795C65.3874 -13.8727 66.9008 -13.6878 67.9257 -13.6693C68.9543 -13.6212 69.5019 -13.5952 69.5019 -13.5952C83.3512 -13.5952 96.4678 -10.4318 108.16 -4.79295C78.1341 -5.96587 43.1723 20.7079 22.5631 50.4488C20.4689 53.4718 18.5263 56.4318 16.6985 59.3474C12.917 56.0359 9.66844 52.7798 6.8453 49.4831C8.53622 46.6599 10.2012 43.9182 11.8107 41.2801C18.2007 30.809 23.7175 21.7661 27.8911 11.7501C31.3692 3.40282 34.5476 -2.99471 41.0892 -7.35336C40.1716 -7.01665 39.2429 -6.67249 38.3216 -6.26178C37.4743 -5.89917 36.6158 -5.52925 35.7426 -5.15555C34.8805 -4.77075 34.0295 -4.33031 33.1563 -3.9122C32.2202 -3.4756 31.2952 -2.99088 30.3665 -2.49506C27.8394 1.20499 25.8931 5.44147 23.9506 10.1109C19.9028 19.8198 14.4637 28.7332 8.16624 39.0564C6.80463 41.2838 5.40599 43.5926 3.98518 45.9495C0.240732 41.021 -2.64903 35.9224 -5.01336 30.3502C-5.76447 31.5305 -6.49703 32.7182 -7.18524 33.9096C-7.35544 34.2241 -7.51828 34.5349 -7.68478 34.8494C-5.19465 40.1774 -2.19387 45.0985 1.60607 49.8827C-2.67488 56.8647 -6.96701 62.1668 -10.7781 66.8548C-14.2339 71.1061 -17.3123 74.9024 -19.5101 78.9614C-19.5508 77.8107 -19.5952 76.6636 -19.5952 75.5018ZM69.5019 -20C16.8429 -20 -26 22.8428 -26 75.5018C-26 128.161 16.8429 171 69.5019 171C122.161 171 165 128.161 165 75.5018C165 22.8428 122.161 -20 69.5019 -20Z" fill="#4C4D76"/>
</svg>
