<svg width="500" height="500" viewBox="0 0 500 500" fill="none" xmlns="http://www.w3.org/2000/svg">
<circle cx="250" cy="250" r="190" stroke="#F9F9FA" stroke-width="20"/>
<path d="M155.708 225.864H144.38L142.7 231H131.516L143.948 197.016H156.236L168.62 231H157.388L155.708 225.864ZM153.116 217.848L150.044 208.392L146.972 217.848H153.116ZM197.729 197.016V205.464H188.705V231H178.049V205.464H169.121V197.016H197.729ZM211.275 222.936H221.547V231H200.619V197.016H211.275V222.936ZM235.556 205.512V209.688H246.116V217.704H235.556V222.504H247.556V231H224.9V197.016H247.556V205.512H235.556ZM242.18 190.536L229.748 195.048V187.944L242.18 182.664V190.536ZM278.26 197.016V205.464H269.236V231H258.58V205.464H249.652V197.016H278.26ZM291.806 197.016V231H281.15V197.016H291.806ZM295.659 213.96C295.659 210.6 296.331 207.608 297.675 204.984C299.051 202.36 301.003 200.328 303.531 198.888C306.059 197.416 309.035 196.68 312.459 196.68C315.403 196.68 318.027 197.24 320.331 198.36C322.667 199.448 324.555 201 325.995 203.016C327.467 205.032 328.443 207.384 328.923 210.072H317.691C317.179 208.952 316.443 208.088 315.483 207.48C314.555 206.84 313.483 206.52 312.267 206.52C310.475 206.52 309.051 207.192 307.995 208.536C306.971 209.88 306.459 211.688 306.459 213.96C306.459 216.232 306.971 218.04 307.995 219.384C309.051 220.728 310.475 221.4 312.267 221.4C313.483 221.4 314.555 221.096 315.483 220.488C316.443 219.848 317.179 218.968 317.691 217.848H328.923C328.443 220.536 327.467 222.888 325.995 224.904C324.555 226.92 322.667 228.488 320.331 229.608C318.027 230.696 315.403 231.24 312.459 231.24C309.035 231.24 306.059 230.52 303.531 229.08C301.003 227.608 299.051 225.56 297.675 222.936C296.331 220.312 295.659 217.32 295.659 213.96ZM354.551 225.864H343.223L341.543 231H330.359L342.791 197.016H355.079L367.463 231H356.231L354.551 225.864ZM351.959 217.848L348.887 208.392L345.815 217.848H351.959ZM141.938 303.336C137.874 303.336 134.514 302.392 131.858 300.504C129.234 298.584 127.81 295.784 127.586 292.104H138.914C139.074 294.056 139.938 295.032 141.506 295.032C142.082 295.032 142.562 294.904 142.946 294.648C143.362 294.36 143.57 293.928 143.57 293.352C143.57 292.552 143.138 291.912 142.274 291.432C141.41 290.92 140.066 290.344 138.242 289.704C136.066 288.936 134.258 288.184 132.818 287.448C131.41 286.712 130.194 285.64 129.17 284.232C128.146 282.824 127.65 281.016 127.682 278.808C127.682 276.6 128.242 274.728 129.362 273.192C130.514 271.624 132.066 270.44 134.018 269.64C136.002 268.84 138.226 268.44 140.69 268.44C144.85 268.44 148.146 269.4 150.578 271.32C153.042 273.24 154.338 275.944 154.466 279.432H142.994C142.962 278.472 142.722 277.784 142.274 277.368C141.826 276.952 141.282 276.744 140.642 276.744C140.194 276.744 139.826 276.904 139.538 277.224C139.25 277.512 139.106 277.928 139.106 278.472C139.106 279.24 139.522 279.88 140.354 280.392C141.218 280.872 142.578 281.464 144.434 282.168C146.578 282.968 148.338 283.736 149.714 284.472C151.122 285.208 152.338 286.232 153.362 287.544C154.386 288.856 154.898 290.504 154.898 292.488C154.898 294.568 154.386 296.44 153.362 298.104C152.338 299.736 150.85 301.016 148.898 301.944C146.946 302.872 144.626 303.336 141.938 303.336ZM169.298 277.512V281.688H179.858V289.704H169.298V294.504H181.298V303H158.642V269.016H181.298V277.512H169.298ZM226.162 269.016V303H215.554V286.056L210.322 303H201.202L195.97 286.056V303H185.314V269.016H198.37L205.858 289.416L213.154 269.016H226.162ZM249.783 294.936H260.055V303H239.127V269.016H249.783V294.936ZM279.968 303.336C276.768 303.336 273.824 302.584 271.136 301.08C268.48 299.576 266.368 297.496 264.8 294.84C263.232 292.184 262.448 289.192 262.448 285.864C262.448 282.536 263.232 279.544 264.8 276.888C266.368 274.232 268.48 272.168 271.136 270.696C273.824 269.192 276.768 268.44 279.968 268.44C283.168 268.44 286.096 269.192 288.752 270.696C291.408 272.168 293.504 274.232 295.04 276.888C296.608 279.544 297.392 282.536 297.392 285.864C297.392 289.192 296.608 292.184 295.04 294.84C293.504 297.496 291.392 299.576 288.704 301.08C286.048 302.584 283.136 303.336 279.968 303.336ZM279.968 293.4C282.08 293.4 283.712 292.728 284.864 291.384C286.016 290.008 286.592 288.168 286.592 285.864C286.592 283.528 286.016 281.688 284.864 280.344C283.712 278.968 282.08 278.28 279.968 278.28C277.824 278.28 276.176 278.968 275.024 280.344C273.872 281.688 273.296 283.528 273.296 285.864C273.296 288.168 273.872 290.008 275.024 291.384C276.176 292.728 277.824 293.4 279.968 293.4ZM322.068 280.632C321.652 279.96 321.06 279.448 320.292 279.096C319.524 278.712 318.596 278.52 317.508 278.52C315.46 278.52 313.876 279.192 312.756 280.536C311.636 281.848 311.076 283.656 311.076 285.96C311.076 288.616 311.7 290.6 312.948 291.912C314.196 293.224 316.116 293.88 318.708 293.88C321.172 293.88 323.156 292.888 324.66 290.904H316.164V283.368H333.492V294.024C332.02 296.552 329.988 298.728 327.396 300.552C324.804 302.344 321.524 303.24 317.556 303.24C314.036 303.24 310.964 302.52 308.34 301.08C305.748 299.608 303.748 297.56 302.34 294.936C300.964 292.312 300.276 289.32 300.276 285.96C300.276 282.6 300.964 279.608 302.34 276.984C303.748 274.36 305.748 272.328 308.34 270.888C310.932 269.416 313.972 268.68 317.46 268.68C321.908 268.68 325.524 269.752 328.308 271.896C331.124 274.04 332.788 276.952 333.3 280.632H322.068ZM353.89 303.336C350.69 303.336 347.746 302.584 345.058 301.08C342.402 299.576 340.29 297.496 338.722 294.84C337.154 292.184 336.37 289.192 336.37 285.864C336.37 282.536 337.154 279.544 338.722 276.888C340.29 274.232 342.402 272.168 345.058 270.696C347.746 269.192 350.69 268.44 353.89 268.44C357.09 268.44 360.018 269.192 362.674 270.696C365.33 272.168 367.426 274.232 368.962 276.888C370.53 279.544 371.314 282.536 371.314 285.864C371.314 289.192 370.53 292.184 368.962 294.84C367.426 297.496 365.314 299.576 362.626 301.08C359.97 302.584 357.058 303.336 353.89 303.336ZM353.89 293.4C356.002 293.4 357.634 292.728 358.786 291.384C359.938 290.008 360.514 288.168 360.514 285.864C360.514 283.528 359.938 281.688 358.786 280.344C357.634 278.968 356.002 278.28 353.89 278.28C351.746 278.28 350.098 278.968 348.946 280.344C347.794 281.688 347.218 283.528 347.218 285.864C347.218 288.168 347.794 290.008 348.946 291.384C350.098 292.728 351.746 293.4 353.89 293.4Z" fill="white"/>
</svg>
